HIERARCHY
ROOT Hips
{
	OFFSET 0.00 0.00 0.00
	CHANNELS 6 Xposition Yposition Zposition Xrotation Yrotation Zrotation
	JOINT Spine
	{
		OFFSET 0.00000 7.06766 0.00000
		CHANNELS 3 Xrotation Yrotation Zrotation
		JOINT Head
		{
			OFFSET 0.00000 15.03989 0.00000
			CHANNELS 3 Xrotation Yrotation Zrotation
			End Site
			{
				OFFSET 0.00000 4.52755 0.00000
			}
		}
		JOINT LeftShoulder
		{
			OFFSET 0.00000 10.53037 0.00000
			CHANNELS 3 Xrotation Yrotation Zrotation
			JOINT LeftArm
			{
				OFFSET 7.02886 0.00000 0.00000
				CHANNELS 3 Xrotation Yrotation Zrotation
				JOINT LeftForeArm
				{
					OFFSET 10.79770 0.00000 0.00000
					CHANNELS 3 Yrotation Zrotation Xrotation
					JOINT LeftHand
					{
						OFFSET 7.90744 0.00000 0.00000
						CHANNELS 3 Xrotation Yrotation Zrotation
						JOINT LeftHandThumb1
						{
							OFFSET 0.00000 0.00000 0.00000
							CHANNELS 3 Xrotation Zrotation Yrotation
							End Site
							{
								OFFSET 0.00000 0.00000 3.93700
							}
						}
						End Site
						{
							OFFSET 3.93700 0.00000 0.00000
						}
					}
				}
			}
		}
		JOINT RightShoulder
		{
			OFFSET 0.00000 10.53037 0.00000
			CHANNELS 3 Xrotation Yrotation Zrotation
			JOINT RightArm
			{
				OFFSET -7.02886 0.00000 0.00000
				CHANNELS 3 Xrotation Yrotation Zrotation
				JOINT RightForeArm
				{
					OFFSET -10.79770 0.00000 0.00000
					CHANNELS 3 Yrotation Zrotation Xrotation
					JOINT RightHand
					{
						OFFSET -7.90744 0.00000 0.00000
						CHANNELS 3 Xrotation Yrotation Zrotation
						JOINT RightHandThumb1
						{
							OFFSET 0.00000 0.00000 0.00000
							CHANNELS 3 Xrotation Zrotation Yrotation
							End Site
							{
								OFFSET 0.00000 0.00000 3.93700
							}
						}
						End Site
						{
							OFFSET -3.93700 0.00000 0.00000
						}
					}
				}
			}
		}
	}
	JOINT LeftUpLeg
	{
		OFFSET 4.01300 0.00000 0.00000
		CHANNELS 3 Xrotation Yrotation Zrotation
		JOINT LeftLeg
		{
			OFFSET 0.00000 -16.89976 0.00000
			CHANNELS 3 Xrotation Yrotation Zrotation
			JOINT LeftFoot
			{
				OFFSET 0.00000 -17.38918 0.00000
				CHANNELS 3 Xrotation Yrotation Zrotation
				JOINT LeftToeBase
				{
					OFFSET 0.00000 -1.27456 4.75673
					CHANNELS 3 Xrotation Yrotation Zrotation
					End Site
					{
						OFFSET 0.00000 0.00000 2.95275
					}
				}
			}
		}
	}
	JOINT RightUpLeg
	{
		OFFSET -4.01300 0.00000 0.00000
		CHANNELS 3 Xrotation Yrotation Zrotation
		JOINT RightLeg
		{
			OFFSET 0.00000 -16.89976 0.00000
			CHANNELS 3 Xrotation Yrotation Zrotation
			JOINT RightFoot
			{
				OFFSET 0.00000 -17.38918 0.00000
				CHANNELS 3 Xrotation Yrotation Zrotation
				JOINT RightToeBase
				{
					OFFSET 0.00000 -1.27456 4.75673
					CHANNELS 3 Xrotation Yrotation Zrotation
					End Site
					{
						OFFSET 0.00000 0.00000 2.95275
					}
				}
			}
		}
	}
}
MOTION
Frames: 21
Frame Time: 0.008333
 18.3743 35.5429 -22.6431 172.4214 -2.4157 178.8274 -20.1356 -1.5680 -0.9859 12.2251 -0.6139 2.4754 -36.0581 -0.0935 18.9383 1.4584 -4.5251 -4.8871 2.8764 0.0000 12.6640 0.8281 8.6916 -5.4638 33.1476 -0.0000 26.2537 2.4768 -14.0312 -11.7087 -35.3726 1.8308 4.9951 5.0380 -0.0000 35.8023 1.0921 -7.0423 8.8383 32.8623 0.0000 -24.3270 0.6974 8.6154 1.7975 -6.1593 -0.0000 0.0000 -17.7787 30.2927 3.8452 26.0431 -0.0000 0.0000 1.3150 -9.3416 1.0937 -3.4839 0.0000 0.0000 -18.8581 -31.1309 -2.4184 23.7937 -0.0000 -0.0000
 18.3781 35.5426 -22.6444 172.4323 -2.3937 178.8323 -20.1060 -1.5314 -0.9908 12.2100 -0.5996 2.4799 -36.0522 -0.0924 18.9526 1.4834 -4.5228 -4.8779 2.8661 0.0000 12.6699 0.8306 8.7235 -5.4606 33.1476 -0.0000 26.2537 2.4693 -14.0227 -11.7180 -35.3837 1.8291 4.9667 5.0274 -0.0000 35.8425 1.0844 -7.0153 8.8100 32.8623 0.0000 -24.3270 0.6919 8.6830 1.7924 -6.1275 -0.0000 -0.0000 -17.7922 30.2790 3.8382 26.0386 0.0000 0.0000 1.3379 -9.3596 1.0984 -3.5081 -0.0000 -0.0000 -18.8352 -31.0948 -2.3837 23.8021 -0.0000 0.0000
 18.3812 35.5426 -22.6440 172.4285 -2.3718 178.8360 -20.0911 -1.5071 -0.9897 12.1887 -0.5934 2.4789 -36.0368 -0.0646 18.9658 1.4870 -4.5361 -4.8641 2.8670 0.0000 12.6752 0.8292 8.7392 -5.4412 33.1476 -0.0000 26.2537 2.4466 -14.0093 -11.7465 -35.4222 1.8082 4.9555 5.0207 -0.0000 35.9634 1.0730 -6.9708 8.7727 32.8623 0.0000 -24.3270 0.6840 8.6941 1.7918 -6.1171 -0.0000 0.0000 -17.8023 30.2997 3.8405 26.0082 -0.0000 -0.0000 1.3373 -9.3617 1.1010 -3.5210 0.0000 -0.0000 -18.8413 -31.0819 -2.3783 23.8591 -0.0000 -0.0000
 18.3830 35.5426 -22.6434 172.4277 -2.3631 178.8453 -20.0720 -1.4864 -0.9928 12.1697 -0.5892 2.4717 -36.0550 -0.0577 18.9741 1.5574 -4.5388 -4.8538 2.8583 0.0000 12.6532 0.8272 8.7509 -5.4213 33.1476 -0.0000 26.2537 2.3133 -13.9221 -11.7829 -35.2494 1.7609 4.8691 5.0406 -0.0000 35.9442 1.0965 -7.0529 8.8601 32.8623 0.0000 -24.3270 0.6866 8.6475 1.7867 -6.1152 -0.0000 -0.0000 -17.7979 30.3442 3.8515 25.9923 0.0000 -0.0000 1.3413 -9.3955 1.0954 -3.5353 -0.0000 -0.0000 -18.8197 -31.0376 -2.3605 23.8607 -0.0000 0.0000
 18.3861 35.5427 -22.6427 172.4206 -2.3580 178.8471 -20.0636 -1.4917 -0.9907 12.1586 -0.5686 2.4600 -36.0429 -0.0206 18.9877 1.5787 -4.5488 -4.8350 2.8536 0.0000 12.6527 0.8283 8.7567 -5.4251 33.1476 -0.0000 26.2537 2.3892 -13.9734 -11.8026 -35.4344 1.8261 4.9214 4.9914 -0.0000 36.0007 1.0717 -6.9482 8.7909 32.8623 0.0000 -24.3270 0.6689 8.6479 1.7897 -6.0968 0.0000 -0.0000 -17.8119 30.3492 3.8580 25.9954 0.0000 -0.0000 1.3453 -9.4173 1.1000 -3.5568 0.0000 0.0000 -18.8005 -30.9976 -2.3335 23.8625 0.0000 -0.0000
 18.3883 35.5424 -22.6415 172.4162 -2.3516 178.8485 -20.0472 -1.4718 -0.9853 12.1386 -0.5757 2.4542 -36.0615 -0.0139 19.0000 1.6151 -4.5544 -4.8364 2.8546 0.0000 12.6499 0.8274 8.7542 -5.4207 33.1476 -0.0000 26.2537 2.3081 -13.9222 -11.8324 -35.3501 1.8014 4.8655 5.0097 -0.0000 35.9688 1.0818 -7.0047 8.8016 32.8623 0.0000 -24.3270 0.6682 8.6264 1.7913 -6.1059 0.0000 -0.0000 -17.8135 30.3766 3.8773 26.0152 -0.0000 -0.0000 1.3384 -9.4572 1.1013 -3.5557 0.0000 0.0000 -18.8009 -30.9590 -2.3129 23.7975 0.0000 -0.0000
 18.3907 35.5426 -22.6389 172.4019 -2.3361 178.8494 -20.0418 -1.4502 -0.9723 12.1211 -0.6127 2.4501 -36.0798 0.0066 19.0015 1.6446 -4.5705 -4.8253 2.8681 0.0000 12.6445 0.8241 8.7346 -5.4112 33.1476 -0.0000 26.2537 2.2640 -13.9137 -11.8620 -35.3503 1.8145 4.8458 5.0109 -0.0000 35.9868 1.0857 -7.0251 8.8081 32.8623 0.0000 -24.3270 0.6498 8.6244 1.7949 -6.1015 -0.0000 0.0000 -17.8151 30.3912 3.8728 26.0207 0.0000 -0.0000 1.3218 -9.4547 1.1042 -3.5644 -0.0000 -0.0000 -18.7914 -30.9438 -2.3117 23.8410 0.0000 -0.0000
 18.3926 35.5426 -22.6367 172.3871 -2.3374 178.8500 -20.0441 -1.4474 -0.9620 12.1183 -0.6231 2.4272 -36.0913 0.0102 19.0135 1.6861 -4.5494 -4.8228 2.8471 0.0000 12.6189 0.8301 8.7402 -5.4471 33.1476 -0.0000 26.2537 2.2518 -13.8948 -11.8822 -35.3430 1.8269 4.8016 4.9960 -0.0000 35.9060 1.0812 -6.9935 8.8107 32.8623 0.0000 -24.3270 0.6366 8.6090 1.7957 -6.1100 -0.0000 0.0000 -17.8053 30.4064 3.8707 26.0024 -0.0000 0.0000 1.2942 -9.5232 1.1053 -3.5453 0.0000 0.0000 -18.7952 -30.8856 -2.3084 23.8665 -0.0000 0.0000
 18.3935 35.5428 -22.6331 172.3713 -2.3217 178.8589 -20.0456 -1.4227 -0.9581 12.1212 -0.6216 2.4253 -36.1229 0.0060 19.0209 1.6782 -4.5323 -4.8186 2.8437 0.0000 12.6557 0.8281 8.7162 -5.4482 33.1476 -0.0000 26.2537 2.2413 -13.8904 -11.9013 -35.3423 1.8327 4.7848 5.0089 -0.0000 35.9571 1.0749 -7.0009 8.7510 32.8623 0.0000 -24.3270 0.6469 8.5190 1.7923 -6.1523 -0.0000 0.0000 -17.7838 30.4841 3.8660 25.9878 0.0000 0.0000 1.2654 -9.5217 1.0954 -3.5370 0.0000 0.0000 -18.8013 -30.8496 -2.3203 23.8814 0.0000 -0.0000
 18.3961 35.5428 -22.6310 172.3639 -2.3149 178.8575 -20.0404 -1.4090 -0.9460 12.1242 -0.6486 2.4095 -36.1406 0.0095 19.0198 1.6272 -4.5276 -4.8099 2.8658 0.0000 12.7064 0.8189 8.7308 -5.3793 33.1476 -0.0000 26.2537 2.3240 -13.9537 -11.9187 -35.4707 1.8911 4.8233 5.0010 -0.0000 35.9564 1.0773 -7.0294 8.7355 32.8623 0.0000 -24.3270 0.6456 8.5124 1.7970 -6.1692 -0.0000 -0.0000 -17.7789 30.4973 3.8711 26.0071 -0.0000 0.0000 1.2549 -9.5271 1.1018 -3.5390 0.0000 0.0000 -18.7973 -30.8465 -2.3168 23.8703 -0.0000 -0.0000
 18.3999 35.5434 -22.6274 172.3351 -2.2952 178.8488 -20.0620 -1.3927 -0.9277 12.1332 -0.6573 2.4079 -36.1648 0.0034 19.0327 1.6461 -4.5118 -4.8009 2.8755 0.0000 12.7057 0.8173 8.7366 -5.3652 33.1476 -0.0000 26.2537 2.3782 -13.9899 -11.8946 -35.5656 1.9763 4.8063 4.9646 -0.0000 35.9856 1.0733 -7.0443 8.6860 32.8623 0.0000 -24.3270 0.5910 8.6272 1.8047 -6.1423 0.0000 -0.0000 -17.7752 30.4195 3.8542 26.0141 0.0000 -0.0000 1.2192 -9.5080 1.1149 -3.5386 0.0000 0.0000 -18.7790 -30.8509 -2.3024 23.8514 0.0000 -0.0000
 18.4022 35.5436 -22.6241 172.3197 -2.2767 178.8503 -20.0632 -1.3636 -0.9157 12.1216 -0.6706 2.4073 -36.1863 -0.0004 19.0355 1.6292 -4.5061 -4.7889 2.8863 0.0000 12.7223 0.8166 8.7136 -5.3747 33.1476 -0.0000 26.2537 2.3559 -13.9835 -11.9130 -35.5748 1.9908 4.7822 4.9586 -0.0000 36.0161 1.0757 -7.0735 8.6695 32.8623 0.0000 -24.3270 0.5659 8.6936 1.8035 -6.1372 -0.0000 -0.0000 -17.7611 30.3859 3.8268 26.0215 0.0000 -0.0000 1.1974 -9.5008 1.1160 -3.5392 -0.0000 -0.0000 -18.7815 -30.8235 -2.3039 23.8075 -0.0000 0.0000
 18.4047 35.5433 -22.6215 172.3106 -2.2880 178.8578 -20.0592 -1.3543 -0.9273 12.1190 -0.7012 2.4252 -36.2141 -0.0351 19.0413 1.6153 -4.4669 -4.7751 2.8857 0.0000 12.7432 0.8199 8.7020 -5.4036 33.1476 -0.0000 26.2537 2.3397 -13.9890 -11.9272 -35.5839 2.0051 4.7660 4.9651 -0.0000 36.0820 1.0770 -7.0896 8.6606 32.8623 0.0000 -24.3270 0.5482 8.7078 1.7981 -6.1282 0.0000 -0.0000 -17.7666 30.3644 3.7943 26.0573 0.0000 0.0000 1.1873 -9.5115 1.1105 -3.5457 -0.0000 0.0000 -18.7558 -30.8296 -2.2492 23.7504 -0.0000 0.0000
 18.4079 35.5432 -22.6189 172.3086 -2.2915 178.8541 -20.0443 -1.3579 -0.9216 12.1084 -0.7076 2.4318 -36.2286 -0.0266 19.0565 1.6114 -4.4667 -4.7578 2.8940 0.0000 12.7294 0.8242 8.7241 -5.4181 33.1476 -0.0000 26.2537 2.3108 -13.9671 -11.9450 -35.5763 2.0091 4.7377 4.9827 -0.0000 36.0390 1.0816 -7.1350 8.6430 32.8623 0.0000 -24.3270 0.5422 8.7321 1.8047 -6.1386 0.0000 0.0000 -17.7537 30.3469 3.7995 26.0824 0.0000 -0.0000 1.1948 -9.5233 1.1203 -3.5661 0.0000 0.0000 -18.7715 -30.8050 -2.2949 23.8373 -0.0000 0.0000
 18.4108 35.5429 -22.6162 172.3066 -2.3069 178.8545 -20.0358 -1.3690 -0.9241 12.1070 -0.7123 2.4367 -36.2338 -0.0386 19.0536 1.6047 -4.4512 -4.7195 2.9153 0.0000 12.7152 0.8247 8.7396 -5.4117 33.1476 -0.0000 26.2537 2.3073 -13.9526 -11.9590 -35.6394 2.0138 4.7220 4.9828 -0.0000 36.1138 1.0744 -7.1320 8.5899 32.8623 0.0000 -24.3270 0.5247 8.7675 1.8054 -6.1290 -0.0000 0.0000 -17.7488 30.3110 3.8012 26.0827 0.0000 -0.0000 1.2022 -9.5139 1.1228 -3.5870 -0.0000 -0.0000 -18.7459 -30.8292 -2.2606 23.7988 0.0000 0.0000
 18.4130 35.5431 -22.6138 172.2934 -2.3206 178.8690 -20.0414 -1.3784 -0.9473 12.0987 -0.7137 2.4575 -36.2411 -0.0364 19.0675 1.5905 -4.4522 -4.6908 2.9268 0.0000 12.7256 0.8243 8.7737 -5.3886 33.1476 -0.0000 26.2537 2.2880 -13.9415 -11.9645 -35.6313 2.0353 4.7052 4.9866 -0.0000 36.1309 1.0750 -7.1481 8.5758 32.8623 0.0000 -24.3270 0.4983 8.7979 1.7912 -6.1140 0.0000 0.0000 -17.7314 30.2855 3.7505 26.0319 0.0000 -0.0000 1.1965 -9.4926 1.1111 -3.6070 -0.0000 -0.0000 -18.7746 -30.8260 -2.3389 23.8918 0.0000 -0.0000
 18.4166 35.5429 -22.6100 172.2817 -2.3253 178.8787 -20.0412 -1.3649 -0.9666 12.0845 -0.7559 2.4768 -36.2449 -0.0554 19.0772 1.5978 -4.4465 -4.6657 2.9281 0.0000 12.7172 0.8268 8.8076 -5.3840 33.1476 -0.0000 26.2537 2.2853 -13.9390 -11.9607 -35.6281 2.0560 4.6788 5.0047 -0.0000 36.0807 1.0982 -7.2246 8.6670 32.8623 0.0000 -24.3270 0.4707 8.8344 1.7852 -6.0992 0.0000 -0.0000 -17.7247 30.2571 3.7316 26.0319 -0.0000 0.0000 1.1953 -9.4583 1.1038 -3.6340 -0.0000 -0.0000 -18.7819 -30.8336 -2.3693 23.9267 -0.0000 -0.0000
 18.4189 35.5428 -22.6078 172.2833 -2.3542 178.8865 -20.0241 -1.3857 -0.9834 12.0592 -0.7630 2.4938 -36.2556 -0.0567 19.0961 1.5886 -4.4408 -4.6481 2.9175 0.0000 12.7259 0.8287 8.7968 -5.4031 33.1476 -0.0000 26.2537 2.2736 -13.9306 -11.9617 -35.6657 2.0711 4.6420 5.0053 -0.0000 36.0717 1.0890 -7.1920 8.6334 32.8623 0.0000 -24.3270 0.4542 8.8425 1.7796 -6.0774 -0.0000 -0.0000 -17.7230 30.2176 3.7386 26.0762 -0.0000 0.0000 1.2040 -9.4742 1.0998 -3.6508 0.0000 -0.0000 -18.7513 -30.8474 -2.3159 23.8088 0.0000 0.0000
 18.4216 35.5431 -22.6047 172.2783 -2.3781 178.8895 -20.0166 -1.3945 -0.9916 12.0356 -0.7519 2.5155 -36.2544 -0.0609 19.1062 1.5732 -4.4416 -4.6319 2.9155 0.0000 12.7405 0.8297 8.7743 -5.4236 33.1476 -0.0000 26.2537 2.2704 -13.9371 -11.9724 -35.6767 2.0826 4.6333 5.0106 -0.0000 36.1715 1.0776 -7.1792 8.5596 32.8623 0.0000 -24.3270 0.4284 8.8481 1.7809 -6.0579 -0.0000 -0.0000 -17.7142 30.1964 3.7198 26.0838 0.0000 -0.0000 1.2077 -9.4611 1.1017 -3.6691 0.0000 0.0000 -18.7831 -30.8702 -2.3891 23.8899 0.0000 -0.0000
 18.4238 35.5430 -22.6017 172.2713 -2.4038 178.8984 -20.0129 -1.3993 -1.0054 12.0152 -0.7679 2.5200 -36.2431 -0.0619 19.1038 1.5689 -4.4626 -4.5984 2.9466 0.0000 12.7335 0.8247 8.7165 -5.4263 33.1476 -0.0000 26.2537 2.2604 -13.9405 -11.9864 -35.6919 2.0953 4.6086 5.0291 -0.0000 36.1129 1.0899 -7.2094 8.6203 32.8623 0.0000 -24.3270 0.4055 8.8251 1.7761 -6.0404 -0.0000 -0.0000 -17.7185 30.1945 3.7197 26.1118 0.0000 -0.0000 1.1998 -9.4466 1.0962 -3.6732 -0.0000 0.0000 -18.8019 -30.9023 -2.4292 23.8892 0.0000 0.0000
 18.4261 35.5430 -22.5987 172.2642 -2.4076 178.9066 -20.0076 -1.3885 -1.0148 11.9816 -0.8022 2.5345 -36.2427 -0.0591 19.1256 1.5609 -4.4789 -4.5870 2.9431 0.0000 12.7429 0.8266 8.7531 -5.4161 33.1476 -0.0000 26.2537 2.2295 -13.9340 -12.0056 -35.6700 2.0937 4.5989 5.0389 -0.0000 36.1161 1.0849 -7.2060 8.5848 32.8623 0.0000 -24.3270 0.3851 8.8352 1.7699 -6.0263 -0.0000 0.0000 -17.7156 30.1930 3.7116 26.0966 0.0000 0.0000 1.1827 -9.4273 1.0916 -3.6649 -0.0000 -0.0000 -18.8293 -30.9170 -2.4721 23.9187 -0.0000 0.0000
